<svg xmlns="http://www.w3.org/2000/svg" viewBox="0 0 13.739 16.909">
    <path d="M1.057 5.284v10.568a1.06 1.06 0 0 0 1.057 1.057h9.511a1.06 1.06 0 0 0 1.057-1.057V5.284zm3.17 9.511H3.171v-7.4h1.056zm2.114 0H5.284v-7.4h1.057zm2.114 0H7.398v-7.4h1.059zm2.114 0H9.511v-7.4h1.057z" data-name="Path 1088"/>
    <path d="M12.946 2.114H9.511V.793A.8.8 0 0 0 8.719 0H5.02a.8.8 0 0 0-.793.793v1.321H.793A.8.8 0 0 0 0 2.906v1.321h13.739V2.906a.8.8 0 0 0-.793-.792zm-4.491 0H5.284V1.07h3.17z" data-name="Path 1089"/>
</svg>
