<svg xmlns="http://www.w3.org/2000/svg" width="19.21" height="9.844" viewBox="0 0 19.21 9.844">
    <g id="noun_rewind_2752468" transform="rotate(180 9.605 4.922)">
        <g id="Group_382" data-name="Group 382">
            <path id="Path_1091" d="M226.159 304.623l3.986-2.312 3.946-2.272a.369.369 0 0 1 .478.12.24.24 0 0 1 .04.159v9.167a.351.351 0 0 1-.319.359.3.3 0 0 1-.2-.08l-3.946-2.272-3.986-2.272a.38.38 0 0 1-.12-.478z" class="cls-1" data-name="Path 1091" transform="translate(-224.246 -300)"/>
            <path id="Path_1092" d="M448.159 304.623l3.986-2.312 3.986-2.272a.321.321 0 0 1 .438.12.239.239 0 0 1 .04.159v9.167a.326.326 0 0 1-.319.359.3.3 0 0 1-.2-.08l-3.946-2.272-3.986-2.272a.38.38 0 0 1-.12-.478z" class="cls-1" data-name="Path 1092" transform="translate(-437.398 -300)"/>
            <path id="Path_1093" d="M182.678 309.485a.351.351 0 0 1-.319.359.357.357 0 0 1-.359-.359v-9.167a.351.351 0 0 1 .359-.319.343.343 0 0 1 .319.319z" class="cls-1" data-name="Path 1093" transform="translate(-182 -300)"/>
        </g>
    </g>
</svg>
